<svg xmlns="http://www.w3.org/2000/svg" xmlns:xlink="http://www.w3.org/1999/xlink" width="100" height="100" viewBox="0 0 100 100"><g><g transform="translate(50 50) scale(0.69 0.69) rotate(0) translate(-50 -50)" style="fill:#000000;"><svg fill="#000000" xmlns="http://www.w3.org/2000/svg" xmlns:xlink="http://www.w3.org/1999/xlink" version="1.1" x="0px" y="0px" viewBox="0 0 96 96" enable-background="new 0 0 96 96" xml:space="preserve"><g><path fill="#000000" d="M48,96C21.533,96,0,74.467,0,48S21.533,0,48,0s48,21.533,48,48S74.467,96,48,96z M48,4   C23.738,4,4,23.738,4,48s19.738,44,44,44s44-19.738,44-44S72.262,4,48,4z"></path></g><g><path fill="#000000" d="M48,57.415c-12.324,0-23.882-0.652-32.547-1.4C1.39,54.801,0.303,54,0.303,51h4   c0,0-0.343-0.802-0.509-0.912C5.759,51.382,22.215,53.294,48,53.294c25.96,0,42.532-1.977,44.515-3.273C92.347,50.131,92,51,92,51   h4c0,3-3.432,4-15.303,5.015C71.954,56.763,60.342,57.415,48,57.415z"></path></g><g><path fill="#000000" d="M46,96c-17,0-31.658-21.533-31.658-48S29,0,46,0v4C31,4,18.342,23.738,18.342,48S31,92,46,92V96z"></path></g><g><path fill="#000000" d="M67.901,85.469c-9.552,0-18.81-4.126-27.297-7.909c-7.288-3.248-14.171-6.316-20.154-6.316   c-7.031,0-8.393,3.58-8.448,3.732l-3.81-1.216c0.082-0.266,2.118-6.516,12.258-6.516c6.834,0,14.095,3.236,21.783,6.663   c12.21,5.442,24.835,11.069,37.405,4.829l1.778,3.583C76.88,84.57,72.358,85.469,67.901,85.469z"></path></g><g><path fill="#000000" d="M18.947,43.947c-8.449,0-10.591-4.33-12.008-7.194c-0.727-1.469-1.177-2.314-1.991-2.61l1.366-3.759   c2.361,0.858,3.344,2.844,4.21,4.596c1.319,2.666,2.458,4.968,8.423,4.968c7.971,0,15.498-3.567,23.466-7.343   c12.927-6.125,27.579-13.073,47.428-5.853l-1.367,3.759c-18.276-6.646-31.531-0.365-44.348,5.708   C35.74,40.193,27.818,43.947,18.947,43.947z"></path></g></svg></g></g></svg>