<svg xmlns="http://www.w3.org/2000/svg" xmlns:xlink="http://www.w3.org/1999/xlink" width="100" height="100" viewBox="0 0 100 100"><g><circle stroke="none" fill="#FFFFFF" r="48%" cx="50%" cy="50%"></circle><g transform="translate(50 50) scale(0.69 0.69) rotate(0) translate(-50 -50)" style="fill:#1A1A1A;"><svg fill="#1A1A1A" xmlns="http://www.w3.org/2000/svg" xmlns:xlink="http://www.w3.org/1999/xlink" xml:space="preserve" style="shape-rendering:geometricPrecision;text-rendering:geometricPrecision;image-rendering:optimizeQuality;" viewBox="0 0 100 100" x="0px" y="0px" fill-rule="evenodd" clip-rule="evenodd"><defs><style type="text/css">
   
    .fil0 {fill:#1A1A1A}
   
  </style></defs><g><path class="fil0" d="M52.6906 6.23391c8.71897,0 8.71897,18.4395 0,18.4395 -8.71897,0 -8.71897,-18.4395 0,-18.4395zm-14.2348 41.2704c3.01774,3.43349 8.51345,2.43545 11.1603,5.5902 -2.60317,1.46222 -5.83233,2.26065 -8.72369,1.10906 -1.78348,-1.61458 -2.64569,-4.34885 -2.43663,-6.69927zm11.504 5.36933c0.538587,-0.359058 1.07717,-0.739376 1.54371,-1.19056 -2.08702,-3.32129 -6.02249,-8.98354 -9.97685,-10.004 -1.55316,1.47757 -2.65514,3.04963 -2.9953,5.22524 2.87601,3.74412 9.09574,2.56774 11.4284,5.96934zm3.32247 -3.24688c1.11851,-1.66301 1.4882,-3.82326 0.868117,-5.74611 -1.03111,-1.79057 -2.81223,-3.15947 -4.79177,-3.73113 3.47247,2.67404 2.24529,6.4843 3.92365,9.47724zm-5.12484 -9.76307c4.44452,2.50514 2.88546,6.66029 4.8709,10.1812 -0.343703,0.462996 -0.753549,0.937803 -1.18584,1.35001 -2.24411,-3.49963 -5.87957,-8.57723 -9.92252,-10.0017 2.19214,-1.59923 5.09413,-1.76576 6.23745,-1.52954zm6.70517 5.55949c0.66969,1.88978 0.579926,3.62838 0.0295278,5.50752 -0.566934,-0.00944889 -1.10316,-0.37205 -1.37954,-0.858668 0.884653,-1.45159 1.45749,-2.89018 1.35001,-4.64886zm-0.114568 5.95989c-0.374412,0.933078 -0.955519,1.84372 -1.67954,2.63742 -0.196065,-0.779534 -0.607091,-1.53781 -0.99922,-2.23466 0.447641,-0.418114 0.825597,-0.865755 1.17875,-1.32757 0.338979,0.519689 0.88229,0.849219 1.50001,0.92481zm-2.05159 3.00357c-1.01694,1.01694 -2.45907,1.75159 -3.83035,2.09057 1.13505,-0.803156 2.05986,-1.85907 1.33466,-3.26105 0.537406,-0.261026 1.10906,-0.728746 1.52836,-1.12442 0.418114,0.675596 0.851582,1.50356 0.96733,2.2949zm-4.9713 2.25592c-2.14017,0.275199 -4.37129,-0.438192 -6.07682,-1.7386 2.81577,0.685045 5.71422,-0.0460634 8.19101,-1.42915 0.806699,1.47403 -1.04174,2.59608 -2.11419,3.16774zm11.7639 -6.16186l-3.11105 -1.22245c-1.28741,12.2753 -19.9844,10.721 -19.062,-1.7256l-4.75161 9.82331 -7.6099 6.39926 -5.42485 15.3592c-0.0909456,0.158269 -6.41816,7.14336 -8.12723,11.2607 -1.16103,2.79687 5.30083,7.37604 9.57291,-2.22049 2.08348,-4.68075 1.13032,-5.4402 4.32523,-9.70047l-1.1008 5.54886c1.07835,4.71618 3.89767,2.47207 5.07878,0.331892 2.36695,-6.62249 -2.31616,-1.63348 5.53351,-12.6249l5.88075 -0.692131 10.3796 -8.98944 8.4166 -11.5477zm-28.9065 -6.68037l6.76186 3.01538c0.211419,-1.99372 1.03583,-3.39688 2.28073,-4.83311l-2.27718 -0.431106 -1.0252 -2.48624c6.66856,-12.5399 7.44573,-10.8733 7.5036,-23.738l-5.01736 2.50868 -8.16621 18.4147 -0.0602367 7.54967zm9.23393 -2.85002l0.582288 0.237403c5.90556,-5.40713 15.547,-1.5508 16.0147,6.49611l3.7146 1.43978 4.72917 -16.3808c-4.89216,-1.32403 -4.11499,-10.5603 0.427562,-13.532l-4.47405 -2.91262c-0.389767,6.59415 -5.30792,8.72723 -9.15125,13.0938 -2.61852,-3.71578 -5.38114,-5.97524 -6.44887,-10.1895 -0.0354333,3.91184 -0.621265,9.68866 -3.41105,11.6174l-1.98309 10.1304zm42.8106 5.60792l3.32719 2.09411c1.1693,1.16576 3.69924,-1.26379 2.40474,-3.27404l-2.72601 -3.71578 -3.57641 -10.7776c-0.990953,-1.42442 -13.9619,-9.72409 -15.8056,-10.9276 -6.13233,5.70831 -2.3764,12.0214 -0.714573,11.5536l11.1875 2.69293c2.80514,5.02209 5.0339,7.78943 5.9032,12.3544z"></path></g></svg></g></g></svg>